<svg xmlns="http://www.w3.org/2000/svg" xmlns:xlink="http://www.w3.org/1999/xlink" contentStyleType="text/css" data-diagram-type="DESCRIPTION" height="221px" preserveAspectRatio="none" style="width:796px;height:221px;background:#FFFFFF;" version="1.1" viewBox="0 0 796 221" width="796px" zoomAndPan="magnify"><defs/><g><!--cluster GCG Core Layer--><g class="cluster" data-entity="GCG Core Layer" data-source-line="2" data-uid="ent0002" id="cluster_GCG Core Layer"><path d="M8.5,6 L118.4238,6 A3.75,3.75 0 0 1 120.9238,8.5 L127.9238,29.6094 L209.5,29.6094 A2.5,2.5 0 0 1 212,32.1094 L212,211.5 A2.5,2.5 0 0 1 209.5,214 L8.5,214 A2.5,2.5 0 0 1 6,211.5 L6,8.5 A2.5,2.5 0 0 1 8.5,6" fill="none" style="stroke:#000000;stroke-width:1.5;"/><line style="stroke:#000000;stroke-width:1.5;" x1="6" x2="127.9238" y1="29.6094" y2="29.6094"/><text fill="#000000" font-family="sans-serif" font-size="14" font-weight="bold" lengthAdjust="spacing" textLength="108.9238" x="10" y="22.5332">GCG Core Layer</text></g><!--cluster Plugin Layer--><g class="cluster" data-entity="Plugin Layer" data-source-line="9" data-uid="ent0006" id="cluster_Plugin Layer"><path d="M238.5,114 L323.5205,114 A3.75,3.75 0 0 1 326.0205,116.5 L333.0205,137.6094 L423.5,137.6094 A2.5,2.5 0 0 1 426,140.1094 L426,211.5 A2.5,2.5 0 0 1 423.5,214 L238.5,214 A2.5,2.5 0 0 1 236,211.5 L236,116.5 A2.5,2.5 0 0 1 238.5,114" fill="none" style="stroke:#000000;stroke-width:1.5;"/><line style="stroke:#000000;stroke-width:1.5;" x1="236" x2="333.0205" y1="137.6094" y2="137.6094"/><text fill="#000000" font-family="sans-serif" font-size="14" font-weight="bold" lengthAdjust="spacing" textLength="84.0205" x="240" y="130.5332">Plugin Layer</text></g><!--cluster Refinement Layer--><g class="cluster" data-entity="Refinement Layer" data-source-line="13" data-uid="ent0008" id="cluster_Refinement Layer"><path d="M452.5,6 L570.9824,6 A3.75,3.75 0 0 1 573.4824,8.5 L580.4824,29.6094 L786.5,29.6094 A2.5,2.5 0 0 1 789,32.1094 L789,211.5 A2.5,2.5 0 0 1 786.5,214 L452.5,214 A2.5,2.5 0 0 1 450,211.5 L450,8.5 A2.5,2.5 0 0 1 452.5,6" fill="none" style="stroke:#000000;stroke-width:1.5;"/><line style="stroke:#000000;stroke-width:1.5;" x1="450" x2="580.4824" y1="29.6094" y2="29.6094"/><text fill="#000000" font-family="sans-serif" font-size="14" font-weight="bold" lengthAdjust="spacing" textLength="117.4824" x="454" y="22.5332">Refinement Layer</text></g><!--entity GCGData--><g class="entity" data-entity="GCGData" data-source-line="3" data-uid="ent0003" id="entity_GCGData"><rect fill="#F1F1F1" height="47.6094" rx="2.5" ry="2.5" style="stroke:#181818;stroke-width:0.5;" width="173.041" x="22.5" y="42"/><rect fill="#F1F1F1" height="10" style="stroke:#181818;stroke-width:0.5;" width="15" x="175.541" y="47"/><rect fill="#F1F1F1" height="2" style="stroke:#181818;stroke-width:0.5;" width="4" x="173.541" y="49"/><rect fill="#F1F1F1" height="2" style="stroke:#181818;stroke-width:0.5;" width="4" x="173.541" y="53"/><text fill="#000000" font-family="sans-serif" font-size="14" lengthAdjust="spacing" textLength="133.041" x="37.5" y="76.5332">GCG Data Structures</text></g><!--entity GCGFrame--><g class="entity" data-entity="GCGFrame" data-source-line="4" data-uid="ent0004" id="entity_GCGFrame"><rect fill="#F1F1F1" height="47.6094" rx="2.5" ry="2.5" style="stroke:#181818;stroke-width:0.5;" width="173.041" x="22.5" y="150"/><rect fill="#F1F1F1" height="10" style="stroke:#181818;stroke-width:0.5;" width="15" x="175.541" y="155"/><rect fill="#F1F1F1" height="2" style="stroke:#181818;stroke-width:0.5;" width="4" x="173.541" y="157"/><rect fill="#F1F1F1" height="2" style="stroke:#181818;stroke-width:0.5;" width="4" x="173.541" y="161"/><text fill="#000000" font-family="sans-serif" font-size="14" lengthAdjust="spacing" textLength="133.041" x="37.5" y="184.5332">Detection Framework</text></g><!--entity Callbacks--><g class="entity" data-entity="Callbacks" data-source-line="10" data-uid="ent0007" id="entity_Callbacks"><rect fill="#F1F1F1" height="47.6094" rx="2.5" ry="2.5" style="stroke:#181818;stroke-width:0.5;" width="157.4893" x="252.5" y="150"/><rect fill="#F1F1F1" height="10" style="stroke:#181818;stroke-width:0.5;" width="15" x="389.9893" y="155"/><rect fill="#F1F1F1" height="2" style="stroke:#181818;stroke-width:0.5;" width="4" x="387.9893" y="157"/><rect fill="#F1F1F1" height="2" style="stroke:#181818;stroke-width:0.5;" width="4" x="387.9893" y="161"/><text fill="#000000" font-family="sans-serif" font-size="14" lengthAdjust="spacing" textLength="117.4893" x="267.5" y="184.5332">Detector Callbacks</text></g><!--entity Adapter--><g class="entity" data-entity="Adapter" data-source-line="14" data-uid="ent0009" id="entity_Adapter"><rect fill="#F1F1F1" height="47.6094" rx="2.5" ry="2.5" style="stroke:#181818;stroke-width:0.5;" width="89.0342" x="466.5" y="150"/><rect fill="#F1F1F1" height="10" style="stroke:#181818;stroke-width:0.5;" width="15" x="535.5342" y="155"/><rect fill="#F1F1F1" height="2" style="stroke:#181818;stroke-width:0.5;" width="4" x="533.5342" y="157"/><rect fill="#F1F1F1" height="2" style="stroke:#181818;stroke-width:0.5;" width="4" x="533.5342" y="161"/><text fill="#000000" font-family="sans-serif" font-size="14" lengthAdjust="spacing" textLength="49.0342" x="481.5" y="184.5332">Adapter</text></g><!--entity Tree--><g class="entity" data-entity="Tree" data-source-line="15" data-uid="ent0010" id="entity_Tree"><rect fill="#F1F1F1" height="47.6094" rx="2.5" ry="2.5" style="stroke:#181818;stroke-width:0.5;" width="181.627" x="591" y="150"/><rect fill="#F1F1F1" height="10" style="stroke:#181818;stroke-width:0.5;" width="15" x="752.627" y="155"/><rect fill="#F1F1F1" height="2" style="stroke:#181818;stroke-width:0.5;" width="4" x="750.627" y="157"/><rect fill="#F1F1F1" height="2" style="stroke:#181818;stroke-width:0.5;" width="4" x="750.627" y="161"/><text fill="#000000" font-family="sans-serif" font-size="14" lengthAdjust="spacing" textLength="141.627" x="606" y="184.5332">Tree Refinement Logic</text></g><!--entity InternalData--><g class="entity" data-entity="InternalData" data-source-line="16" data-uid="ent0011" id="entity_InternalData"><rect fill="#F1F1F1" height="47.6094" rx="2.5" ry="2.5" style="stroke:#181818;stroke-width:0.5;" width="187.8477" x="525" y="42"/><rect fill="#F1F1F1" height="10" style="stroke:#181818;stroke-width:0.5;" width="15" x="692.8477" y="47"/><rect fill="#F1F1F1" height="2" style="stroke:#181818;stroke-width:0.5;" width="4" x="690.8477" y="49"/><rect fill="#F1F1F1" height="2" style="stroke:#181818;stroke-width:0.5;" width="4" x="690.8477" y="53"/><text fill="#000000" font-family="sans-serif" font-size="14" lengthAdjust="spacing" textLength="147.8477" x="540" y="76.5332">Internal Data Structures</text></g><!--link GCGData to GCGFrame--><g class="link" data-entity-1="GCGData" data-entity-2="GCGFrame" data-source-line="6" data-uid="lnk5" id="link_GCGData_GCGFrame"><path d="M109,90 C109,107.66 109,131.94 109,149.68" fill="none" id="GCGData-GCGFrame" style="stroke:#181818;stroke-width:1;"/></g><!--link GCGFrame to Callbacks--><g class="link" data-entity-1="GCGFrame" data-entity-2="Callbacks" data-source-line="19" data-uid="lnk12" id="link_GCGFrame_Callbacks"><path d="M195.72,174 C214.57,174 227.41,174 246.26,174" fill="none" id="GCGFrame-to-Callbacks" style="stroke:#181818;stroke-width:1;"/><polygon fill="#181818" points="252.26,174,243.26,170,247.26,174,243.26,178,252.26,174" style="stroke:#181818;stroke-width:1;"/></g><!--link Callbacks to GCGFrame--><g class="link" data-entity-1="Callbacks" data-entity-2="GCGFrame" data-source-line="20" data-uid="lnk14" id="link_Callbacks_GCGFrame"><path d="M252.26,174 C233.41,174 220.57,174 201.72,174" fill="none" id="Callbacks-to-GCGFrame" style="stroke:#181818;stroke-width:1;"/><polygon fill="#181818" points="195.72,174,204.72,178,200.72,174,204.72,170,195.72,174" style="stroke:#181818;stroke-width:1;"/></g><!--link Callbacks to Adapter--><g class="link" data-entity-1="Callbacks" data-entity-2="Adapter" data-source-line="22" data-uid="lnk15" id="link_Callbacks_Adapter"><path d="M415.75,174 C434.6,174 441.46,174 460.31,174" fill="none" id="Callbacks-Adapter" style="stroke:#181818;stroke-width:1;"/><polygon fill="#181818" points="409.75,174,418.75,178,414.75,174,418.75,170,409.75,174" style="stroke:#181818;stroke-width:1;"/><polygon fill="#181818" points="466.31,174,457.31,170,461.31,174,457.31,178,466.31,174" style="stroke:#181818;stroke-width:1;"/></g><!--link Adapter to Tree--><g class="link" data-entity-1="Adapter" data-entity-2="Tree" data-source-line="23" data-uid="lnk16" id="link_Adapter_Tree"><path d="M555.75,174 C567.43,174 579.1,174 590.77,174" fill="none" id="Adapter-Tree" style="stroke:#181818;stroke-width:1;"/></g><!--link InternalData to Tree--><g class="link" data-entity-1="InternalData" data-entity-2="Tree" data-source-line="24" data-uid="lnk18" id="link_InternalData_Tree"><path d="M632.67,90 C643.16,107.66 657.6,131.94 668.14,149.68" fill="none" id="InternalData-Tree" style="stroke:#181818;stroke-width:1;"/></g><!--link InternalData to Adapter--><g class="link" data-entity-1="InternalData" data-entity-2="Adapter" data-source-line="25" data-uid="lnk19" id="link_InternalData_Adapter"><path d="M591.47,90.07 C585.61,95.21 579.52,100.7 574,106 C559.37,120.04 543.75,136.64 531.73,149.81" fill="none" id="InternalData-Adapter" style="stroke:#181818;stroke-width:1;"/></g><!--SRC=[RP31Ri8m38RlUGgBUzvWceIAG9Dsc0OtnC4KqqM4f3Ak449xzwL9tHL4Bedz__xrnItM9sm8Pgjg1LLaWa-y4S_WRY2TRTzUe22iXRjQEgRB3l02gT-tYsb1GhMu6639UAPhv9EQSiDasp02zX2lmVwBlyQqIl7bkyQ59uOI7nagz7wVh0LXh1uIlkde0fqfo5FA_82j4EVHuLs43HF1T2mshiwsNYcUZv3i0VtBNQYO5v9Oz6TWsJK_OjydgAFsPZqTnKuaCpwJg9DAEjmQMT0okUrQ-uWmBNJRclC7]--></g></svg>