<svg xmlns="http://www.w3.org/2000/svg" xmlns:xlink="http://www.w3.org/1999/xlink" contentStyleType="text/css" data-diagram-type="CLASS" height="166px" preserveAspectRatio="none" style="width:547px;height:166px;background:#FFFFFF;" version="1.1" viewBox="0 0 547 166" width="547px" zoomAndPan="magnify"><defs/><g><!--class IndexedCellTable--><g class="entity" data-entity="IndexedCellTable" data-source-line="4" data-uid="ent0002" id="entity_IndexedCellTable"><rect fill="#F1F1F1" height="152.5918" rx="2.5" ry="2.5" style="stroke:#181818;stroke-width:0.5;" width="204.0557" x="7" y="7"/><ellipse cx="54.6328" cy="23" fill="#ADD1B2" rx="11" ry="11" style="stroke:#181818;stroke-width:1;"/><path d="M57.3984,18.875 Q57.5547,18.6563 57.7422,18.5469 Q57.9297,18.4375 58.1484,18.4375 Q58.5234,18.4375 58.7578,18.7031 Q58.9922,18.9531 58.9922,19.5625 L58.9922,21.0156 Q58.9922,21.625 58.7578,21.8906 Q58.5234,22.1563 58.1484,22.1563 Q57.8047,22.1563 57.6016,21.9531 Q57.3984,21.7656 57.2891,21.25 Q57.2422,20.8906 57.0547,20.7031 Q56.7266,20.3281 56.1172,20.1094 Q55.5078,19.8906 54.8828,19.8906 Q54.1172,19.8906 53.4766,20.2188 Q52.8516,20.5469 52.3516,21.2969 Q51.8672,22.0469 51.8672,23.0781 L51.8672,24.1719 Q51.8672,25.4063 52.7578,26.2344 Q53.6484,27.0469 55.2422,27.0469 Q56.1797,27.0469 56.8359,26.7969 Q57.2266,26.6406 57.6484,26.2031 Q57.9141,25.9375 58.0547,25.8594 Q58.2109,25.7813 58.4141,25.7813 Q58.7422,25.7813 58.9922,26.0469 Q59.2578,26.2969 59.2578,26.6406 Q59.2578,26.9844 58.9141,27.3906 Q58.4141,27.9688 57.6172,28.2969 Q56.5391,28.75 55.2422,28.75 Q53.7266,28.75 52.5234,28.125 Q51.5391,27.625 50.8516,26.5625 Q50.1641,25.4844 50.1641,24.2031 L50.1641,23.0469 Q50.1641,21.7188 50.7734,20.5781 Q51.3984,19.4219 52.4922,18.8125 Q53.5859,18.1875 54.8203,18.1875 Q55.5547,18.1875 56.1953,18.3594 Q56.8516,18.5156 57.3984,18.875 Z " fill="#000000"/><text fill="#000000" font-family="Times New Roman" font-size="14" lengthAdjust="spacing" textLength="100.29" x="75.1328" y="28.021">IndexedCellTable</text><line style="stroke:#181818;stroke-width:0.5;" x1="8" x2="210.0557" y1="39" y2="39"/><rect fill="none" height="6" style="stroke:#C82930;stroke-width:1;" width="6" x="15" y="49.5493"/><text fill="#000000" font-family="Times New Roman" font-size="14" lengthAdjust="spacing" textLength="168.7314" x="27" y="56.0703">elements: Hash Table of Cells</text><line style="stroke:#181818;stroke-width:1;" x1="8" x2="210.0557" y1="63.0986" y2="63.0986"/><ellipse cx="18" cy="76.6479" fill="#84BE84" rx="3" ry="3" style="stroke:#038048;stroke-width:1;"/><text fill="#000000" font-family="Times New Roman" font-size="14" lengthAdjust="spacing" textLength="67.2588" x="27" y="80.1689">add(x: Cell)</text><ellipse cx="18" cy="92.7466" fill="#84BE84" rx="3" ry="3" style="stroke:#038048;stroke-width:1;"/><text fill="#000000" font-family="Times New Roman" font-size="14" lengthAdjust="spacing" textLength="89.0244" x="27" y="96.2676">remove(x: Cell)</text><ellipse cx="18" cy="108.8452" fill="#84BE84" rx="3" ry="3" style="stroke:#038048;stroke-width:1;"/><text fill="#000000" font-family="Times New Roman" font-size="14" lengthAdjust="spacing" textLength="145.4072" x="27" y="112.3662">contains(x: Cell): boolean</text><line style="stroke:#181818;stroke-width:1;" x1="8" x2="210.0557" y1="119.3945" y2="119.3945"/><ellipse cx="18" cy="132.9438" fill="#84BE84" rx="3" ry="3" style="stroke:#038048;stroke-width:1;"/><text fill="#000000" font-family="Times New Roman" font-size="14" lengthAdjust="spacing" textLength="142.2969" x="27" y="136.4648">idOfCell(x: Cell): integer</text><ellipse cx="18" cy="149.0425" fill="#84BE84" rx="3" ry="3" style="stroke:#038048;stroke-width:1;"/><text fill="#000000" font-family="Times New Roman" font-size="14" lengthAdjust="spacing" textLength="178.0557" x="27" y="152.5635">getRepresentative(x: Cell): Cell</text></g><!--class TreeNodeTable--><g class="entity" data-entity="TreeNodeTable" data-source-line="15" data-uid="ent0003" id="entity_TreeNodeTable"><rect fill="#F1F1F1" height="136.4932" rx="2.5" ry="2.5" style="stroke:#181818;stroke-width:0.5;" width="269.3252" x="271" y="15.5"/><ellipse cx="357.4951" cy="31.5" fill="#ADD1B2" rx="11" ry="11" style="stroke:#181818;stroke-width:1;"/><path d="M360.2607,27.375 Q360.417,27.1563 360.6045,27.0469 Q360.792,26.9375 361.0107,26.9375 Q361.3857,26.9375 361.6201,27.2031 Q361.8545,27.4531 361.8545,28.0625 L361.8545,29.5156 Q361.8545,30.125 361.6201,30.3906 Q361.3857,30.6563 361.0107,30.6563 Q360.667,30.6563 360.4639,30.4531 Q360.2607,30.2656 360.1514,29.75 Q360.1045,29.3906 359.917,29.2031 Q359.5889,28.8281 358.9795,28.6094 Q358.3701,28.3906 357.7451,28.3906 Q356.9795,28.3906 356.3389,28.7188 Q355.7139,29.0469 355.2139,29.7969 Q354.7295,30.5469 354.7295,31.5781 L354.7295,32.6719 Q354.7295,33.9063 355.6201,34.7344 Q356.5107,35.5469 358.1045,35.5469 Q359.042,35.5469 359.6982,35.2969 Q360.0889,35.1406 360.5107,34.7031 Q360.7764,34.4375 360.917,34.3594 Q361.0732,34.2813 361.2764,34.2813 Q361.6045,34.2813 361.8545,34.5469 Q362.1201,34.7969 362.1201,35.1406 Q362.1201,35.4844 361.7764,35.8906 Q361.2764,36.4688 360.4795,36.7969 Q359.4014,37.25 358.1045,37.25 Q356.5889,37.25 355.3857,36.625 Q354.4014,36.125 353.7139,35.0625 Q353.0264,33.9844 353.0264,32.7031 L353.0264,31.5469 Q353.0264,30.2188 353.6357,29.0781 Q354.2607,27.9219 355.3545,27.3125 Q356.4482,26.6875 357.6826,26.6875 Q358.417,26.6875 359.0576,26.8594 Q359.7139,27.0156 360.2607,27.375 Z " fill="#000000"/><text fill="#000000" font-family="Times New Roman" font-size="14" lengthAdjust="spacing" textLength="87.835" x="377.9951" y="36.521">TreeNodeTable</text><line style="stroke:#181818;stroke-width:0.5;" x1="272" x2="539.3252" y1="47.5" y2="47.5"/><rect fill="none" height="6" style="stroke:#C82930;stroke-width:1;" width="6" x="279" y="58.0493"/><text fill="#000000" font-family="Times New Roman" font-size="14" lengthAdjust="spacing" textLength="159.7559" x="291" y="64.5703">cellTable: IndexedCellTable</text><line style="stroke:#181818;stroke-width:1;" x1="272" x2="539.3252" y1="71.5986" y2="71.5986"/><ellipse cx="282" cy="85.1479" fill="#84BE84" rx="3" ry="3" style="stroke:#038048;stroke-width:1;"/><text fill="#000000" font-family="Times New Roman" font-size="14" lengthAdjust="spacing" textLength="99.8936" x="291" y="88.6689">add(x: TreeNode)</text><ellipse cx="282" cy="101.2466" fill="#84BE84" rx="3" ry="3" style="stroke:#038048;stroke-width:1;"/><text fill="#000000" font-family="Times New Roman" font-size="14" lengthAdjust="spacing" textLength="121.6592" x="291" y="104.7676">remove(x: TreeNode)</text><ellipse cx="282" cy="117.3452" fill="#84BE84" rx="3" ry="3" style="stroke:#038048;stroke-width:1;"/><text fill="#000000" font-family="Times New Roman" font-size="14" lengthAdjust="spacing" textLength="178.042" x="291" y="120.8662">contains(x: TreeNode): boolean</text><line style="stroke:#181818;stroke-width:1;" x1="272" x2="539.3252" y1="127.8945" y2="127.8945"/><ellipse cx="282" cy="141.4438" fill="#84BE84" rx="3" ry="3" style="stroke:#038048;stroke-width:1;"/><text fill="#000000" font-family="Times New Roman" font-size="14" lengthAdjust="spacing" textLength="243.3252" x="291" y="144.9648">getRepresentative(x: TreeNode): TreeNode</text></g><!--reverse link IndexedCellTable to TreeNodeTable--><g class="link" data-entity-1="IndexedCellTable" data-entity-2="TreeNodeTable" data-source-line="25" data-uid="lnk4" id="link_IndexedCellTable_TreeNodeTable"><path codeLine="25" d="M223.35,83.5 C242.57,83.5 250.94,83.5 270.98,83.5" fill="none" id="IndexedCellTable-backto-TreeNodeTable" style="stroke:#181818;stroke-width:1;"/><polygon fill="none" points="211.35,83.5,217.35,87.5,223.35,83.5,217.35,79.5,211.35,83.5" style="stroke:#181818;stroke-width:1;"/></g><!--SRC=[RP51QiCm44NtEiKiMuelu6qXj1iNWYymiRuTKKaJf4aRABbxxHW79ROs8_uVpVo7yhUB9quSoABdizUTH6quW5eNaAd1B-qbS3GUlP8A9JSSbQnBwDH9DARpd3DzHeiBx3kyR_dWGN-6nbF18o1ghkc3yv5cJtgQ6lFSKjtA6rlxSgblnkki90JvmPFOZG7PnNoNQpg8U8mHosdEVlMJNRIvg1YGPd-0xd5Ao6CuLbUicOkvBcHj0XgnUC3g5ivwHRu5jSnOWJqP9TpTsWRS12ZUBDS9PFKvKbMFNEOV]--></g></svg>