<?xml version="1.0" encoding="us-ascii" standalone="no"?><svg xmlns="http://www.w3.org/2000/svg" xmlns:xlink="http://www.w3.org/1999/xlink" contentStyleType="text/css" height="184px" preserveAspectRatio="none" style="width:616px;height:184px;background:#FFFFFF;" version="1.1" viewBox="0 0 616 184" width="616px" zoomAndPan="magnify"><defs/><g><!--class IndexedCellTable--><g id="elem_IndexedCellTable"><rect codeLine="4" fill="#F1F1F1" height="170.4075" id="IndexedCellTable" rx="2.5" ry="2.5" style="stroke:#181818;stroke-width:0.5;" width="230" x="7" y="7"/><ellipse cx="59.25" cy="23" fill="#ADD1B2" rx="11" ry="11" style="stroke:#181818;stroke-width:1.0;"/><path d="M59.3594,18.5313 Q58.4375,18.5313 57.7031,18.8438 Q56.9844,19.1563 56.4844,19.75 Q55.9844,20.3281 55.7031,21.2031 Q55.4375,22.0781 55.4375,23.1719 Q55.4375,24.6094 55.875,25.6563 Q56.3281,26.7031 57.1719,27.25 Q58.0313,27.7969 59.3438,27.7969 Q60.125,27.7969 60.8125,27.6719 Q61.5156,27.5313 62.5156,27.2188 L62.5156,29.0938 Q61.6563,29.4219 60.8906,29.5469 Q60.1406,29.6719 59.125,29.6719 Q57.2031,29.6719 55.8906,28.875 Q54.5938,28.0625 53.9375,26.5938 Q53.2813,25.1094 53.2813,23.1406 Q53.2813,21.7188 53.6719,20.5469 Q54.0781,19.3594 54.8594,18.4844 Q55.6406,17.6094 56.7813,17.1406 Q57.9219,16.6563 59.3906,16.6563 Q60.3438,16.6563 61.2344,16.8594 Q62.1406,17.0469 63.0781,17.5156 L62.25,19.2969 Q61.4688,18.9219 60.8125,18.7344 Q60.1563,18.5313 59.3594,18.5313 Z " fill="#000000"/><text fill="#000000" font-family="Times New Roman" font-size="14" lengthAdjust="spacing" textLength="117" x="79.75" y="28.432">IndexedCellTable</text><line style="stroke:#181818;stroke-width:0.5;" x1="8" x2="236" y1="39" y2="39"/><rect fill="none" height="6" style="stroke:#C82930;stroke-width:1.0;" width="6" x="15" y="51.034"/><text fill="#000000" font-family="Times New Roman" font-size="14" lengthAdjust="spacing" textLength="198" x="27" y="57.9659">elements: Hash Table of Cells</text><line style="stroke:#181818;stroke-width:1.0;" x1="8" x2="236" y1="66.0679" y2="66.0679"/><ellipse cx="18" cy="81.1019" fill="#84BE84" rx="3" ry="3" style="stroke:#038048;stroke-width:1.0;"/><text fill="#000000" font-family="Times New Roman" font-size="14" lengthAdjust="spacing" textLength="74" x="27" y="85.0339">add(x: Cell)</text><ellipse cx="18" cy="100.1698" fill="#84BE84" rx="3" ry="3" style="stroke:#038048;stroke-width:1.0;"/><text fill="#000000" font-family="Times New Roman" font-size="14" lengthAdjust="spacing" textLength="98" x="27" y="104.1018">remove(x: Cell)</text><ellipse cx="18" cy="119.2377" fill="#84BE84" rx="3" ry="3" style="stroke:#038048;stroke-width:1.0;"/><text fill="#000000" font-family="Times New Roman" font-size="14" lengthAdjust="spacing" textLength="167" x="27" y="123.1697">contains(x: Cell): boolean</text><line style="stroke:#181818;stroke-width:1.0;" x1="8" x2="236" y1="131.2717" y2="131.2717"/><ellipse cx="18" cy="146.3056" fill="#84BE84" rx="3" ry="3" style="stroke:#038048;stroke-width:1.0;"/><text fill="#000000" font-family="Times New Roman" font-size="14" lengthAdjust="spacing" textLength="159" x="27" y="150.2376">idOfCell(x: Cell): integer</text><ellipse cx="18" cy="165.3735" fill="#84BE84" rx="3" ry="3" style="stroke:#038048;stroke-width:1.0;"/><text fill="#000000" font-family="Times New Roman" font-size="14" lengthAdjust="spacing" textLength="204" x="27" y="169.3055">getRepresentative(x: Cell): Cell</text></g><!--class TreeNodeTable--><g id="elem_TreeNodeTable"><rect codeLine="15" fill="#F1F1F1" height="170.4075" id="TreeNodeTable" rx="2.5" ry="2.5" style="stroke:#181818;stroke-width:0.5;" width="312" x="297" y="7"/><ellipse cx="397.25" cy="23" fill="#ADD1B2" rx="11" ry="11" style="stroke:#181818;stroke-width:1.0;"/><path d="M397.3594,18.5313 Q396.4375,18.5313 395.7031,18.8438 Q394.9844,19.1563 394.4844,19.75 Q393.9844,20.3281 393.7031,21.2031 Q393.4375,22.0781 393.4375,23.1719 Q393.4375,24.6094 393.875,25.6563 Q394.3281,26.7031 395.1719,27.25 Q396.0313,27.7969 397.3438,27.7969 Q398.125,27.7969 398.8125,27.6719 Q399.5156,27.5313 400.5156,27.2188 L400.5156,29.0938 Q399.6563,29.4219 398.8906,29.5469 Q398.1406,29.6719 397.125,29.6719 Q395.2031,29.6719 393.8906,28.875 Q392.5938,28.0625 391.9375,26.5938 Q391.2813,25.1094 391.2813,23.1406 Q391.2813,21.7188 391.6719,20.5469 Q392.0781,19.3594 392.8594,18.4844 Q393.6406,17.6094 394.7813,17.1406 Q395.9219,16.6563 397.3906,16.6563 Q398.3438,16.6563 399.2344,16.8594 Q400.1406,17.0469 401.0781,17.5156 L400.25,19.2969 Q399.4688,18.9219 398.8125,18.7344 Q398.1563,18.5313 397.3594,18.5313 Z " fill="#000000"/><text fill="#000000" font-family="Times New Roman" font-size="14" lengthAdjust="spacing" textLength="103" x="417.75" y="28.432">TreeNodeTable</text><line style="stroke:#181818;stroke-width:0.5;" x1="298" x2="608" y1="39" y2="39"/><rect fill="none" height="6" style="stroke:#C82930;stroke-width:1.0;" width="6" x="305" y="51.034"/><text fill="#000000" font-family="Times New Roman" font-size="14" lengthAdjust="spacing" textLength="185" x="317" y="57.9659">cellTable: IndexedCellTable</text><line style="stroke:#181818;stroke-width:1.0;" x1="298" x2="608" y1="66.0679" y2="66.0679"/><ellipse cx="308" cy="81.1019" fill="#84BE84" rx="3" ry="3" style="stroke:#038048;stroke-width:1.0;"/><text fill="#000000" font-family="Times New Roman" font-size="14" lengthAdjust="spacing" textLength="115" x="317" y="85.0339">add(x: TreeNode)</text><ellipse cx="308" cy="100.1698" fill="#84BE84" rx="3" ry="3" style="stroke:#038048;stroke-width:1.0;"/><text fill="#000000" font-family="Times New Roman" font-size="14" lengthAdjust="spacing" textLength="139" x="317" y="104.1018">remove(x: TreeNode)</text><ellipse cx="308" cy="119.2377" fill="#84BE84" rx="3" ry="3" style="stroke:#038048;stroke-width:1.0;"/><text fill="#000000" font-family="Times New Roman" font-size="14" lengthAdjust="spacing" textLength="208" x="317" y="123.1697">contains(x: TreeNode): boolean</text><line style="stroke:#181818;stroke-width:1.0;" x1="298" x2="608" y1="131.2717" y2="131.2717"/><ellipse cx="308" cy="146.3056" fill="#84BE84" rx="3" ry="3" style="stroke:#038048;stroke-width:1.0;"/><text fill="#000000" font-family="Times New Roman" font-size="14" lengthAdjust="spacing" textLength="240" x="317" y="150.2376">addIfMissing(x: TreeNode): boolean</text><ellipse cx="308" cy="165.3735" fill="#84BE84" rx="3" ry="3" style="stroke:#038048;stroke-width:1.0;"/><text fill="#000000" font-family="Times New Roman" font-size="14" lengthAdjust="spacing" textLength="286" x="317" y="169.3055">getRepresentative(x: TreeNode): TreeNode</text></g><!--reverse link IndexedCellTable to TreeNodeTable--><g id="link_IndexedCellTable_TreeNodeTable"><path codeLine="26" d="M249.14,92.21 C268.35,92.21 276.58,92.21 296.62,92.21 " fill="none" id="IndexedCellTable-backto-TreeNodeTable" style="stroke:#181818;stroke-width:1.0;"/><polygon fill="none" points="237.14,92.21,243.14,96.21,249.14,92.21,243.14,88.21,237.14,92.21" style="stroke:#181818;stroke-width:1.0;"/></g><!--SRC=[VP7DQiCm48JlUeezjXI_WA-5qXpgGl0BRAonirG_GQksWT9thntZeCIckgoO6LRp8VsGSEB4dYnw_dJv9ORSi0Urug7Ku9lsqNCm3dsc72d9SCna9Q7B4eCndMDLsWMBC-mpd6lvu40_XiPJmS4ZPAtfbVL8inTxce8wHwhBU69h7yxrnNYSbGGVlt0dTcD1bg1NkQP3Z0vZnNARsFT-iekOX8m1QVO7v3rE2JgMuop5C_CmlmjPcu0cMjnWTGjdlIBVWbfshC3kZ1BkQcq3Zfjt_PkeIXZ-YM-35k7bEW6lFZ5MrIs_-GC0]--></g></svg>