<?xml version="1.0" encoding="UTF-8" standalone="no"?>
<!DOCTYPE svg PUBLIC "-//W3C//DTD SVG 1.1//EN"
 "http://www.w3.org/Graphics/SVG/1.1/DTD/svg11.dtd">
<!-- Generated by graphviz version 12.1.0 (20240811.2233)
 -->
<!-- Title: G Pages: 1 -->
<svg width="496pt" height="529pt"
 viewBox="0.00 0.00 496.25 529.25" xmlns="http://www.w3.org/2000/svg" xmlns:xlink="http://www.w3.org/1999/xlink">
<g id="graph0" class="graph" transform="scale(1 1) rotate(0) translate(4 525.25)">
<title>G</title>
<polygon fill="white" stroke="none" points="-4,4 -4,-525.25 492.25,-525.25 492.25,4 -4,4"/>
<!-- N0 -->
<g id="node1" class="node">
<title>N0</title>
<polygon fill="orange" stroke="none" points="353.25,-521.25 233,-521.25 233,-406.5 353.25,-406.5 353.25,-521.25"/>
<polygon fill="none" stroke="#000000" stroke-opacity="0.266667" points="233,-483.25 233,-521.25 353.25,-521.25 353.25,-483.25 233,-483.25"/>
<text text-anchor="start" x="272.88" y="-503.95" font-family="Times,serif" font-weight="bold" font-size="14.00">Node 0</text>
<text text-anchor="start" x="238" y="-489.95" font-family="Times,serif" font-size="14.00">Set &#45;, Parent Index &#45;</text>
<polygon fill="none" stroke="#000000" stroke-opacity="0.266667" points="233,-459 233,-483.25 353.25,-483.25 353.25,-459 233,-459"/>
<text text-anchor="start" x="238" y="-464.95" font-family="Times,serif" font-size="14.00">Strategy: &#45; &#160;</text>
<polygon fill="none" stroke="#000000" stroke-opacity="0.266667" points="233,-406.5 233,-459 353.25,-459 353.25,-406.5 233,-406.5"/>
<polygon fill="none" stroke="#000000" stroke-opacity="0.266667" points="239,-432.75 239,-453 347.25,-453 347.25,-432.75 239,-432.75"/>
<text text-anchor="start" x="289.75" y="-436.7" font-family="Times,serif" font-size="14.00">0</text>
<polygon fill="none" stroke="#000000" stroke-opacity="0.266667" points="239,-412.5 239,-432.75 347.25,-432.75 347.25,-412.5 239,-412.5"/>
<text text-anchor="start" x="288.25" y="-416.45" font-family="Times,serif" font-size="14.00">●</text>
<polygon fill="none" stroke="#000000" stroke-opacity="0.266667" points="238,-411.5 238,-454 348.25,-454 348.25,-411.5 238,-411.5"/>
</g>
<!-- N1 -->
<g id="node2" class="node">
<title>N1</title>
<polygon fill="yellowgreen" stroke="none" points="289.75,-344.12 88.5,-344.12 88.5,-229.88 289.75,-229.88 289.75,-344.12"/>
<polygon fill="none" stroke="#000000" stroke-opacity="0.266667" points="88.5,-306.12 88.5,-344.12 289.75,-344.12 289.75,-306.12 88.5,-306.12"/>
<text text-anchor="start" x="168.88" y="-326.82" font-family="Times,serif" font-weight="bold" font-size="14.00">Node 1</text>
<text text-anchor="start" x="131.75" y="-312.82" font-family="Times,serif" font-size="14.00">Set 0, Parent Index 0</text>
<polygon fill="none" stroke="#000000" stroke-opacity="0.266667" points="88.5,-281.88 88.5,-306.12 289.75,-306.12 289.75,-281.88 88.5,-281.88"/>
<text text-anchor="start" x="93.5" y="-287.82" font-family="Times,serif" font-size="14.00">Strategy: CellCovering[nonzeros] &#160;</text>
<polygon fill="none" stroke="#000000" stroke-opacity="0.266667" points="88.5,-229.88 88.5,-281.88 289.75,-281.88 289.75,-229.88 88.5,-229.88"/>
<polygon fill="royalblue" stroke="none" points="94.5,-255.88 94.5,-275.88 189.12,-275.88 189.12,-255.88 94.5,-255.88"/>
<polygon fill="none" stroke="#000000" stroke-opacity="0.266667" points="94.5,-255.88 94.5,-275.88 189.12,-275.88 189.12,-255.88 94.5,-255.88"/>
<text text-anchor="start" x="138.44" y="-259.57" font-family="Times,serif" font-size="14.00">1</text>
<polygon fill="royalblue" stroke="none" points="189.12,-255.88 189.12,-275.88 283.75,-275.88 283.75,-255.88 189.12,-255.88"/>
<polygon fill="none" stroke="#000000" stroke-opacity="0.266667" points="189.12,-255.88 189.12,-275.88 283.75,-275.88 283.75,-255.88 189.12,-255.88"/>
<text text-anchor="start" x="233.06" y="-259.57" font-family="Times,serif" font-size="14.00">2</text>
<polygon fill="none" stroke="#000000" stroke-opacity="0.266667" points="94.5,-235.88 94.5,-255.88 189.12,-255.88 189.12,-235.88 94.5,-235.88"/>
<text text-anchor="start" x="136.94" y="-239.57" font-family="Times,serif" font-size="14.00">●</text>
<polygon fill="none" stroke="#000000" stroke-opacity="0.266667" points="189.12,-235.88 189.12,-255.88 283.75,-255.88 283.75,-235.88 189.12,-235.88"/>
<text text-anchor="start" x="231.56" y="-239.57" font-family="Times,serif" font-size="14.00">●</text>
<polygon fill="none" stroke="#000000" stroke-opacity="0.266667" points="93.5,-234.88 93.5,-276.88 284.75,-276.88 284.75,-234.88 93.5,-234.88"/>
</g>
<!-- N0&#45;&gt;N1 -->
<g id="edge1" class="edge">
<title>N0:c&#45;&gt;N1</title>
<path fill="none" stroke="black" stroke-width="2" stroke-dasharray="1,5" d="M286.3,-412.86C276.22,-399.9 256.47,-374.53 237.4,-350.03"/>
<polygon fill="black" stroke="black" stroke-width="2" points="238.88,-349.08 234.43,-346.21 236.12,-351.23 238.88,-349.08"/>
</g>
<!-- N3 -->
<g id="node3" class="node">
<title>N3</title>
<polygon fill="orangered" stroke="none" points="488.25,-370.5 308,-370.5 308,-203.5 488.25,-203.5 488.25,-370.5"/>
<polygon fill="none" stroke="#000000" stroke-opacity="0.266667" points="308,-332.5 308,-370.5 488.25,-370.5 488.25,-332.5 308,-332.5"/>
<text text-anchor="start" x="377.88" y="-353.2" font-family="Times,serif" font-weight="bold" font-size="14.00">Node 3</text>
<text text-anchor="start" x="340.75" y="-339.2" font-family="Times,serif" font-size="14.00">Set 0, Parent Index 0</text>
<polygon fill="none" stroke="#000000" stroke-opacity="0.266667" points="308,-308.25 308,-332.5 488.25,-332.5 488.25,-308.25 308,-308.25"/>
<text text-anchor="start" x="313" y="-314.2" font-family="Times,serif" font-size="14.00">Strategy: FastCell[varobjvals] &#160;</text>
<polygon fill="none" stroke="#000000" stroke-opacity="0.266667" points="308,-255.5 308,-308.25 488.25,-308.25 488.25,-255.5 308,-255.5"/>
<text text-anchor="start" x="313" y="-289.95" font-family="Times,serif" font-size="14.00">Cutoff: True</text>
<text text-anchor="start" x="313" y="-275.7" font-family="Times,serif" font-size="14.00">Reason: Duplicate</text>
<text text-anchor="start" x="313" y="-261.45" font-family="Times,serif" font-size="14.00">Actually Expanded: 1</text>
<polygon fill="none" stroke="#000000" stroke-opacity="0.266667" points="308,-203.5 308,-255.5 488.25,-255.5 488.25,-203.5 308,-203.5"/>
<polygon fill="none" stroke="#000000" stroke-opacity="0.266667" points="314,-229.5 314,-249.5 398.12,-249.5 398.12,-229.5 314,-229.5"/>
<text text-anchor="start" x="352.69" y="-233.2" font-family="Times,serif" font-size="14.00">1</text>
<polygon fill="none" stroke="#000000" stroke-opacity="0.266667" points="398.12,-229.5 398.12,-249.5 482.25,-249.5 482.25,-229.5 398.12,-229.5"/>
<text text-anchor="start" x="436.81" y="-233.2" font-family="Times,serif" font-size="14.00">2</text>
<polygon fill="none" stroke="#000000" stroke-opacity="0.266667" points="314,-209.5 314,-229.5 398.12,-229.5 398.12,-209.5 314,-209.5"/>
<text text-anchor="start" x="351.19" y="-213.2" font-family="Times,serif" font-size="14.00">●</text>
<polygon fill="none" stroke="#000000" stroke-opacity="0.266667" points="398.12,-209.5 398.12,-229.5 482.25,-229.5 482.25,-209.5 398.12,-209.5"/>
<text text-anchor="start" x="435.31" y="-213.2" font-family="Times,serif" font-size="14.00">●</text>
<polygon fill="none" stroke="#000000" stroke-opacity="0.266667" points="313,-208.5 313,-250.5 483.25,-250.5 483.25,-208.5 313,-208.5"/>
</g>
<!-- N0&#45;&gt;N3 -->
<g id="edge2" class="edge">
<title>N0:c&#45;&gt;N3</title>
<path fill="none" stroke="black" stroke-width="2" stroke-dasharray="1,5" d="M300.01,-412.86C306.5,-404.6 316.94,-391.31 328.65,-376.41"/>
<polygon fill="black" stroke="black" stroke-width="2" points="329.79,-377.8 331.5,-372.78 327.04,-375.63 329.79,-377.8"/>
</g>
<!-- N6 -->
<g id="node4" class="node">
<title>N6</title>
<polygon fill="orangered" stroke="none" points="180.25,-167.5 0,-167.5 0,0 180.25,0 180.25,-167.5"/>
<polygon fill="none" stroke="#000000" stroke-opacity="0.266667" points="0,-129.5 0,-167.5 180.25,-167.5 180.25,-129.5 0,-129.5"/>
<text text-anchor="start" x="69.88" y="-150.2" font-family="Times,serif" font-weight="bold" font-size="14.00">Node 6</text>
<text text-anchor="start" x="32.75" y="-136.2" font-family="Times,serif" font-size="14.00">Set 1, Parent Index 0</text>
<polygon fill="none" stroke="#000000" stroke-opacity="0.266667" points="0,-105.25 0,-129.5 180.25,-129.5 180.25,-105.25 0,-105.25"/>
<text text-anchor="start" x="5" y="-111.2" font-family="Times,serif" font-size="14.00">Strategy: FastCell[varobjvals] &#160;</text>
<polygon fill="none" stroke="#000000" stroke-opacity="0.266667" points="0,-52.5 0,-105.25 180.25,-105.25 180.25,-52.5 0,-52.5"/>
<text text-anchor="start" x="5" y="-86.95" font-family="Times,serif" font-size="14.00">Cutoff: True</text>
<text text-anchor="start" x="5" y="-72.7" font-family="Times,serif" font-size="14.00">Reason: Did not change</text>
<text text-anchor="start" x="5" y="-58.45" font-family="Times,serif" font-size="14.00">Actually Expanded: &#45;</text>
<polygon fill="none" stroke="#000000" stroke-opacity="0.266667" points="0,0 0,-52.5 180.25,-52.5 180.25,0 0,0"/>
<polygon fill="none" stroke="#000000" stroke-opacity="0.266667" points="6,-26.25 6,-46.5 174.25,-46.5 174.25,-26.25 6,-26.25"/>
<text text-anchor="start" x="86.75" y="-30.2" font-family="Times,serif" font-size="14.00">1</text>
<polygon fill="none" stroke="#000000" stroke-opacity="0.266667" points="6,-6 6,-26.25 174.25,-26.25 174.25,-6 6,-6"/>
<text text-anchor="start" x="85.25" y="-9.95" font-family="Times,serif" font-size="14.00">●</text>
<polygon fill="none" stroke="#000000" stroke-opacity="0.266667" points="5,-5 5,-47.5 175.25,-47.5 175.25,-5 5,-5"/>
</g>
<!-- N1&#45;&gt;N6 -->
<g id="edge3" class="edge">
<title>N1:c&#45;&gt;N6</title>
<path fill="none" stroke="black" stroke-width="2" stroke-dasharray="1,5" d="M139.03,-236.27C135.06,-223.97 127.34,-200.05 119.19,-174.79"/>
<polygon fill="black" stroke="black" stroke-width="2" points="120.89,-174.38 117.69,-170.16 117.56,-175.45 120.89,-174.38"/>
</g>
<!-- N7 -->
<g id="node5" class="node">
<title>N7</title>
<polygon fill="orangered" stroke="none" points="378.25,-167.5 198,-167.5 198,0 378.25,0 378.25,-167.5"/>
<polygon fill="none" stroke="#000000" stroke-opacity="0.266667" points="198,-129.5 198,-167.5 378.25,-167.5 378.25,-129.5 198,-129.5"/>
<text text-anchor="start" x="267.88" y="-150.2" font-family="Times,serif" font-weight="bold" font-size="14.00">Node 7</text>
<text text-anchor="start" x="230.75" y="-136.2" font-family="Times,serif" font-size="14.00">Set 2, Parent Index 1</text>
<polygon fill="none" stroke="#000000" stroke-opacity="0.266667" points="198,-105.25 198,-129.5 378.25,-129.5 378.25,-105.25 198,-105.25"/>
<text text-anchor="start" x="203" y="-111.2" font-family="Times,serif" font-size="14.00">Strategy: FastCell[varobjvals] &#160;</text>
<polygon fill="none" stroke="#000000" stroke-opacity="0.266667" points="198,-52.5 198,-105.25 378.25,-105.25 378.25,-52.5 198,-52.5"/>
<text text-anchor="start" x="203" y="-86.95" font-family="Times,serif" font-size="14.00">Cutoff: True</text>
<text text-anchor="start" x="203" y="-72.7" font-family="Times,serif" font-size="14.00">Reason: Did not change</text>
<text text-anchor="start" x="203" y="-58.45" font-family="Times,serif" font-size="14.00">Actually Expanded: &#45;</text>
<polygon fill="none" stroke="#000000" stroke-opacity="0.266667" points="198,0 198,-52.5 378.25,-52.5 378.25,0 198,0"/>
<polygon fill="none" stroke="#000000" stroke-opacity="0.266667" points="204,-26.25 204,-46.5 372.25,-46.5 372.25,-26.25 204,-26.25"/>
<text text-anchor="start" x="284.75" y="-30.2" font-family="Times,serif" font-size="14.00">2</text>
<polygon fill="none" stroke="#000000" stroke-opacity="0.266667" points="204,-6 204,-26.25 372.25,-26.25 372.25,-6 204,-6"/>
<text text-anchor="start" x="283.25" y="-9.95" font-family="Times,serif" font-size="14.00">●</text>
<polygon fill="none" stroke="#000000" stroke-opacity="0.266667" points="203,-5 203,-47.5 373.25,-47.5 373.25,-5 203,-5"/>
</g>
<!-- N1&#45;&gt;N7 -->
<g id="edge4" class="edge">
<title>N1:c&#45;&gt;N7</title>
<path fill="none" stroke="black" stroke-width="2" stroke-dasharray="1,5" d="M239.22,-236.27C243.19,-223.97 250.91,-200.05 259.06,-174.79"/>
<polygon fill="black" stroke="black" stroke-width="2" points="260.69,-175.45 260.56,-170.16 257.36,-174.38 260.69,-175.45"/>
</g>
</g>
</svg>
