<?xml version="1.0" encoding="UTF-8" standalone="no"?>
<!DOCTYPE svg PUBLIC "-//W3C//DTD SVG 1.1//EN"
 "http://www.w3.org/Graphics/SVG/1.1/DTD/svg11.dtd">
<!-- Generated by graphviz version 12.1.0 (20240811.2233)
 -->
<!-- Title: G Pages: 1 -->
<svg width="456pt" height="441pt"
 viewBox="0.00 0.00 456.12 441.25" xmlns="http://www.w3.org/2000/svg" xmlns:xlink="http://www.w3.org/1999/xlink">
<g id="graph0" class="graph" transform="scale(1 1) rotate(0) translate(4 437.25)">
<title>G</title>
<polygon fill="white" stroke="none" points="-4,4 -4,-437.25 452.12,-437.25 452.12,4 -4,4"/>
<!-- N0 -->
<g id="node1" class="node">
<title>N0</title>
<polygon fill="snow" stroke="none" points="264.75,-433.25 144.5,-433.25 144.5,-312.5 264.75,-312.5 264.75,-433.25"/>
<polygon fill="none" stroke="#000000" stroke-opacity="0.266667" points="144.5,-395.25 144.5,-433.25 264.75,-433.25 264.75,-395.25 144.5,-395.25"/>
<text text-anchor="start" x="184.38" y="-415.95" font-family="Times,serif" font-weight="bold" font-size="14.00">Node 0</text>
<text text-anchor="start" x="149.5" y="-401.95" font-family="Times,serif" font-size="14.00">Set &#45;, Parent Index &#45;</text>
<polygon fill="none" stroke="#000000" stroke-opacity="0.266667" points="144.5,-371 144.5,-395.25 264.75,-395.25 264.75,-371 144.5,-371"/>
<text text-anchor="start" x="149.5" y="-376.95" font-family="Times,serif" font-size="14.00">Strategy: &#45; &#160;</text>
<polygon fill="none" stroke="#000000" stroke-opacity="0.266667" points="144.5,-312.5 144.5,-371 264.75,-371 264.75,-312.5 144.5,-312.5"/>
<polygon fill="snow" stroke="none" points="150.5,-344.75 150.5,-365 258.75,-365 258.75,-344.75 150.5,-344.75"/>
<polygon fill="none" stroke="#000000" stroke-opacity="0.266667" points="150.5,-344.75 150.5,-365 258.75,-365 258.75,-344.75 150.5,-344.75"/>
<text text-anchor="start" x="201.25" y="-348.7" font-family="Times,serif" font-size="14.00">0</text>
<polygon fill="none" stroke="#000000" stroke-opacity="0.266667" points="150.5,-338.75 150.5,-344.75 258.75,-344.75 258.75,-338.75 150.5,-338.75"/>
<polygon fill="none" stroke="#000000" stroke-opacity="0.266667" points="150.5,-318.5 150.5,-338.75 258.75,-338.75 258.75,-318.5 150.5,-318.5"/>
<text text-anchor="start" x="199.75" y="-322.45" font-family="Times,serif" font-size="14.00">●</text>
<polygon fill="none" stroke="#000000" stroke-opacity="0.266667" points="149.5,-317.5 149.5,-366 259.75,-366 259.75,-317.5 149.5,-317.5"/>
</g>
<!-- N1 -->
<g id="node2" class="node">
<title>N1</title>
<polygon fill="snow" stroke="none" points="177.25,-276.5 0,-276.5 0,-156.25 177.25,-156.25 177.25,-276.5"/>
<polygon fill="none" stroke="#000000" stroke-opacity="0.266667" points="0,-238.5 0,-276.5 177.25,-276.5 177.25,-238.5 0,-238.5"/>
<text text-anchor="start" x="68.38" y="-259.2" font-family="Times,serif" font-weight="bold" font-size="14.00">Node 1</text>
<text text-anchor="start" x="31.25" y="-245.2" font-family="Times,serif" font-size="14.00">Set 0, Parent Index 0</text>
<polygon fill="none" stroke="#000000" stroke-opacity="0.266667" points="0,-214.25 0,-238.5 177.25,-238.5 177.25,-214.25 0,-214.25"/>
<text text-anchor="start" x="5" y="-220.2" font-family="Times,serif" font-size="14.00">Strategy: This is one strategy &#160;</text>
<polygon fill="none" stroke="#000000" stroke-opacity="0.266667" points="0,-156.25 0,-214.25 177.25,-214.25 177.25,-156.25 0,-156.25"/>
<polygon fill="snow" stroke="none" points="6,-188.25 6,-208.25 88.62,-208.25 88.62,-188.25 6,-188.25"/>
<polygon fill="none" stroke="#000000" stroke-opacity="0.266667" points="6,-188.25 6,-208.25 88.62,-208.25 88.62,-188.25 6,-188.25"/>
<text text-anchor="start" x="43.94" y="-191.95" font-family="Times,serif" font-size="14.00">1</text>
<polygon fill="snow" stroke="none" points="88.62,-188.25 88.62,-208.25 171.25,-208.25 171.25,-188.25 88.62,-188.25"/>
<polygon fill="none" stroke="#000000" stroke-opacity="0.266667" points="88.62,-188.25 88.62,-208.25 171.25,-208.25 171.25,-188.25 88.62,-188.25"/>
<text text-anchor="start" x="126.56" y="-191.95" font-family="Times,serif" font-size="14.00">2</text>
<polygon fill="none" stroke="#000000" stroke-opacity="0.266667" points="6,-182.25 6,-188.25 88.62,-188.25 88.62,-182.25 6,-182.25"/>
<polygon fill="none" stroke="#000000" stroke-opacity="0.266667" points="88.62,-182.25 88.62,-188.25 171.25,-188.25 171.25,-182.25 88.62,-182.25"/>
<polygon fill="none" stroke="#000000" stroke-opacity="0.266667" points="6,-162.25 6,-182.25 88.62,-182.25 88.62,-162.25 6,-162.25"/>
<text text-anchor="start" x="42.44" y="-165.95" font-family="Times,serif" font-size="14.00">●</text>
<polygon fill="none" stroke="#000000" stroke-opacity="0.266667" points="88.62,-162.25 88.62,-182.25 171.25,-182.25 171.25,-162.25 88.62,-162.25"/>
<text text-anchor="start" x="125.06" y="-165.95" font-family="Times,serif" font-size="14.00">●</text>
<polygon fill="none" stroke="#000000" stroke-opacity="0.266667" points="5,-161.25 5,-209.25 172.25,-209.25 172.25,-161.25 5,-161.25"/>
</g>
<!-- N0&#45;&gt;N1 -->
<g id="edge1" class="edge">
<title>N0:c&#45;&gt;N1</title>
<path fill="none" stroke="black" stroke-width="2" stroke-dasharray="1,5" d="M195.13,-318.6C186.12,-310.04 171.7,-296.33 156.35,-281.74"/>
<polygon fill="black" stroke="black" stroke-width="2" points="157.68,-280.59 152.85,-278.42 155.27,-283.13 157.68,-280.59"/>
</g>
<!-- N3 -->
<g id="node3" class="node">
<title>N3</title>
<polygon fill="snow" stroke="none" points="448.12,-276.5 195.12,-276.5 195.12,-156.25 448.12,-156.25 448.12,-276.5"/>
<polygon fill="none" stroke="#000000" stroke-opacity="0.266667" points="195.12,-238.5 195.12,-276.5 448.12,-276.5 448.12,-238.5 195.12,-238.5"/>
<text text-anchor="start" x="301.38" y="-259.2" font-family="Times,serif" font-weight="bold" font-size="14.00">Node 3</text>
<text text-anchor="start" x="264.25" y="-245.2" font-family="Times,serif" font-size="14.00">Set 0, Parent Index 0</text>
<polygon fill="none" stroke="#000000" stroke-opacity="0.266667" points="195.12,-214.25 195.12,-238.5 448.12,-238.5 448.12,-214.25 195.12,-214.25"/>
<text text-anchor="start" x="200.12" y="-220.2" font-family="Times,serif" font-size="14.00">Strategy: This might be a different strategy &#160;</text>
<polygon fill="none" stroke="#000000" stroke-opacity="0.266667" points="195.12,-156.25 195.12,-214.25 448.12,-214.25 448.12,-156.25 195.12,-156.25"/>
<polygon fill="snow" stroke="none" points="201.12,-188.25 201.12,-208.25 281.46,-208.25 281.46,-188.25 201.12,-188.25"/>
<polygon fill="none" stroke="#000000" stroke-opacity="0.266667" points="201.12,-188.25 201.12,-208.25 281.46,-208.25 281.46,-188.25 201.12,-188.25"/>
<text text-anchor="start" x="237.92" y="-191.95" font-family="Times,serif" font-size="14.00">1</text>
<polygon fill="snow" stroke="none" points="281.46,-188.25 281.46,-208.25 361.79,-208.25 361.79,-188.25 281.46,-188.25"/>
<polygon fill="none" stroke="#000000" stroke-opacity="0.266667" points="281.46,-188.25 281.46,-208.25 361.79,-208.25 361.79,-188.25 281.46,-188.25"/>
<text text-anchor="start" x="318.25" y="-191.95" font-family="Times,serif" font-size="14.00">3</text>
<polygon fill="snow" stroke="none" points="361.79,-188.25 361.79,-208.25 442.12,-208.25 442.12,-188.25 361.79,-188.25"/>
<polygon fill="none" stroke="#000000" stroke-opacity="0.266667" points="361.79,-188.25 361.79,-208.25 442.12,-208.25 442.12,-188.25 361.79,-188.25"/>
<text text-anchor="start" x="398.58" y="-191.95" font-family="Times,serif" font-size="14.00">4</text>
<polygon fill="none" stroke="#000000" stroke-opacity="0.266667" points="201.12,-182.25 201.12,-188.25 281.46,-188.25 281.46,-182.25 201.12,-182.25"/>
<polygon fill="none" stroke="#000000" stroke-opacity="0.266667" points="281.46,-182.25 281.46,-188.25 361.79,-188.25 361.79,-182.25 281.46,-182.25"/>
<polygon fill="none" stroke="#000000" stroke-opacity="0.266667" points="361.79,-182.25 361.79,-188.25 442.12,-188.25 442.12,-182.25 361.79,-182.25"/>
<polygon fill="none" stroke="#000000" stroke-opacity="0.266667" points="201.12,-162.25 201.12,-182.25 281.46,-182.25 281.46,-162.25 201.12,-162.25"/>
<text text-anchor="start" x="236.42" y="-165.95" font-family="Times,serif" font-size="14.00">●</text>
<polygon fill="none" stroke="#000000" stroke-opacity="0.266667" points="281.46,-162.25 281.46,-182.25 361.79,-182.25 361.79,-162.25 281.46,-162.25"/>
<text text-anchor="start" x="316.75" y="-165.95" font-family="Times,serif" font-size="14.00">●</text>
<polygon fill="none" stroke="#000000" stroke-opacity="0.266667" points="361.79,-162.25 361.79,-182.25 442.12,-182.25 442.12,-162.25 361.79,-162.25"/>
<text text-anchor="start" x="397.08" y="-165.95" font-family="Times,serif" font-size="14.00">●</text>
<polygon fill="none" stroke="#000000" stroke-opacity="0.266667" points="200.12,-161.25 200.12,-209.25 443.12,-209.25 443.12,-161.25 200.12,-161.25"/>
</g>
<!-- N0&#45;&gt;N3 -->
<g id="edge2" class="edge">
<title>N0:c&#45;&gt;N3</title>
<path fill="none" stroke="black" stroke-width="2" stroke-dasharray="1,5" d="M214.2,-318.6C223.29,-310.04 237.83,-296.33 253.32,-281.74"/>
<polygon fill="black" stroke="black" stroke-width="2" points="254.42,-283.11 256.86,-278.41 252.02,-280.56 254.42,-283.11"/>
</g>
<!-- N9 -->
<g id="node4" class="node">
<title>N9</title>
<polygon fill="snow" stroke="none" points="256.12,-120.25 3.12,-120.25 3.12,0 256.12,0 256.12,-120.25"/>
<polygon fill="none" stroke="#000000" stroke-opacity="0.266667" points="3.12,-82.25 3.12,-120.25 256.12,-120.25 256.12,-82.25 3.12,-82.25"/>
<text text-anchor="start" x="109.38" y="-102.95" font-family="Times,serif" font-weight="bold" font-size="14.00">Node 9</text>
<text text-anchor="start" x="72.25" y="-88.95" font-family="Times,serif" font-size="14.00">Set 2, Parent Index 1</text>
<polygon fill="none" stroke="#000000" stroke-opacity="0.266667" points="3.12,-58 3.12,-82.25 256.12,-82.25 256.12,-58 3.12,-58"/>
<text text-anchor="start" x="8.12" y="-63.95" font-family="Times,serif" font-size="14.00">Strategy: This might be a different strategy &#160;</text>
<polygon fill="none" stroke="#000000" stroke-opacity="0.266667" points="3.12,0 3.12,-58 256.12,-58 256.12,0 3.12,0"/>
<polygon fill="snow" stroke="none" points="9.12,-32 9.12,-52 129.62,-52 129.62,-32 9.12,-32"/>
<polygon fill="none" stroke="#000000" stroke-opacity="0.266667" points="9.12,-32 9.12,-52 129.62,-52 129.62,-32 9.12,-32"/>
<text text-anchor="start" x="66" y="-35.7" font-family="Times,serif" font-size="14.00">3</text>
<polygon fill="snow" stroke="none" points="129.62,-32 129.62,-52 250.12,-52 250.12,-32 129.62,-32"/>
<polygon fill="none" stroke="#000000" stroke-opacity="0.266667" points="129.62,-32 129.62,-52 250.12,-52 250.12,-32 129.62,-32"/>
<text text-anchor="start" x="186.5" y="-35.7" font-family="Times,serif" font-size="14.00">4</text>
<polygon fill="none" stroke="#000000" stroke-opacity="0.266667" points="9.12,-26 9.12,-32 129.62,-32 129.62,-26 9.12,-26"/>
<polygon fill="none" stroke="#000000" stroke-opacity="0.266667" points="129.62,-26 129.62,-32 250.12,-32 250.12,-26 129.62,-26"/>
<polygon fill="none" stroke="#000000" stroke-opacity="0.266667" points="9.12,-6 9.12,-26 129.62,-26 129.62,-6 9.12,-6"/>
<text text-anchor="start" x="64.5" y="-9.7" font-family="Times,serif" font-size="14.00">●</text>
<polygon fill="none" stroke="#000000" stroke-opacity="0.266667" points="129.62,-6 129.62,-26 250.12,-26 250.12,-6 129.62,-6"/>
<text text-anchor="start" x="185" y="-9.7" font-family="Times,serif" font-size="14.00">●</text>
<polygon fill="none" stroke="#000000" stroke-opacity="0.266667" points="8.12,-5 8.12,-53 251.12,-53 251.12,-5 8.12,-5"/>
</g>
<!-- N1&#45;&gt;N9 -->
<g id="edge3" class="edge">
<title>N1:c&#45;&gt;N9</title>
<path fill="none" stroke="black" stroke-width="2" stroke-dasharray="1,5" d="M129.91,-162.61C129.89,-154.57 129.85,-141.77 129.81,-127.93"/>
<polygon fill="black" stroke="black" stroke-width="2" points="131.57,-128.18 129.8,-123.18 128.07,-128.19 131.57,-128.18"/>
</g>
</g>
</svg>
